# xmcd
#
# Track frame offsets: 
#        150
#        14025
#        24078
#        37782
#        52903
#        66196
#        81682
#        96478
#        110730
#        126204
#        139823
#        154418
#        168205
#        182504
#        196086
#        210016
#        224584
#        239037
#        262998
#        273895
#
# Disc length: 3793 seconds
#
# Revision: 2
# Processed by: cddbd v1.5.2PL0 Copyright (c) Steve Scherf et al.
# Submitted via: ExactAudioCopyFreeDBPlugin 1.0
#
DISCID=1c0ecf14
DTITLE=Various Artist - CD 07 American in Paris - Jazzmen love France
DYEAR=1900
DGENRE=Jazz
TTITLE0=Louis Armstrong - C'est si bon
TTITLE1=Django Reinhardt and The Air Transport Command Band - Belleville
TTITLE2=Dizzy Gillespie - Afro Paris
TTITLE3=Thelenious Monk - April In Paris
TTITLE4=Don Byas - Roses Of Picardy
TTITLE5=Bud Powell - Parisian Thoroughfare
TTITLE6=Sidney Bechet - Promenade aux Champs-Elysées
TTITLE7=Charlie Parker - April In Paris
TTITLE8=Louis Armstrong - La vie en rose
TTITLE9=Eddie South with Stephane Grappelli and Django Reinhardt - Daphn
TTITLE9=é
TTITLE10=Bill Coleman - Joe Louis Stomp
TTITLE11=Coleman Hawkins - Crazy Rhythm
TTITLE12=Bud Powell - April In Paris
TTITLE13=Jonah Jones - I'm Heading For Paris
TTITLE14=Benny Carter - I'm Coming Virginia
TTITLE15=Johnny Hodges and Shorty Baker - Good To The Last Drop
TTITLE16=Kenny Clarke - Maggie's Draw
TTITLE17=John Lewis - Period Suite
TTITLE18=Rex Stewart Feetwarmers - Montmartre
TTITLE19=Josephine Baker - You're Driving Me Crazy
EXTD=
EXTT0=
EXTT1=
EXTT2=
EXTT3=
EXTT4=
EXTT5=
EXTT6=
EXTT7=
EXTT8=
EXTT9=
EXTT10=
EXTT11=
EXTT12=
EXTT13=
EXTT14=
EXTT15=
EXTT16=
EXTT17=
EXTT18=
EXTT19=
PLAYORDER=
